<svg width="64" height="64" xmlns="http://www.w3.org/2000/svg">

 <g>
  <title>background</title>
  <rect fill="none" id="canvas_background" height="66" width="66" y="-1" x="-1"/>
 </g>
 <g>
  <title>Layer 1</title>
  <g id="svg_1">
   <g id="svg_2">
    <rect id="svg_3" height="2.406" width="6.227" fill="#ffffff" y="11.431" x="34.931"/>
   </g>
   <g id="svg_4">
    <rect id="svg_5" height="2.406" width="6.227" fill="#ffffff" y="11.431" x="22.846"/>
   </g>
   <path id="svg_6" d="m61.923,51.572l0,-35.073c0,-2.795 -2.275,-5.07 -5.07,-5.07l-9.867,0l0,2.412l9.86,0c1.465,0 2.657,1.192 2.657,2.657l0,35.073c0,1.465 -1.192,2.657 -2.657,2.657l-8.876,0l0.003,-0.045l-4.197,0l-0.236,0.045l-23.378,0l0,-0.045l-4.207,0l-0.246,0.045l-8.563,0c-1.464,0 -2.654,-1.192 -2.654,-2.657l0,-35.072c0,-1.465 1.19,-2.657 2.654,-2.657l9.845,0l0,-2.412l-9.845,0c-2.795,0 -5.069,2.274 -5.069,5.07l0,35.073c0,2.795 2.274,5.07 5.069,5.07l49.7,0c2.8,-0.002 5.077,-2.276 5.077,-5.071z" fill="#ffffff"/>
   <path id="svg_7" d="m21.164,14.73l0,-6.12c0,-0.69 -0.559,-1.251 -1.251,-1.251s-1.243,0.561 -1.243,1.251l0,6.12c-0.718,0.427 -1.2,1.207 -1.2,2.103c0,1.352 1.096,2.447 2.447,2.447c1.352,0 2.447,-1.096 2.447,-2.447c0.001,-0.895 -0.482,-1.676 -1.2,-2.103z" fill="#ffffff"/>
   <path id="svg_8" d="m33.254,14.734l0,-6.124c0,-0.69 -0.564,-1.251 -1.254,-1.251c-0.69,0 -1.254,0.561 -1.254,1.251l0,6.124c-0.714,0.427 -1.194,1.206 -1.194,2.099c0,1.352 1.096,2.447 2.447,2.447c1.352,0 2.447,-1.096 2.447,-2.447c0.002,-0.893 -0.478,-1.671 -1.192,-2.099z" fill="#ffffff"/>
   <path id="svg_9" d="m45.33,14.73l0,-6.12c0,-0.69 -0.559,-1.251 -1.243,-1.251c-0.692,0 -1.251,0.561 -1.251,1.251l0,6.12c-0.718,0.427 -1.2,1.207 -1.2,2.103c0,1.352 1.096,2.447 2.447,2.447c1.352,0 2.447,-1.096 2.447,-2.447c0.001,-0.895 -0.482,-1.676 -1.2,-2.103z" fill="#ffffff"/>
   <path id="svg_10" d="m38.465,51.11c-0.537,0 -1.085,-0.091 -1.626,-0.272c-0.644,-0.221 -1.171,-0.491 -1.596,-0.707c-0.207,-0.107 -0.346,-0.18 -0.488,-0.244c-0.324,-0.15 -0.637,-0.305 -0.95,-0.463c-0.543,-0.269 -1.058,-0.525 -1.454,-0.643c-0.429,-0.126 -0.911,-0.054 -1.414,0.214l-0.682,0.36c-0.564,0.298 -1.129,0.597 -1.695,0.892c-0.35,0.181 -0.728,0.369 -1.196,0.532c-1.804,0.627 -3.804,0.222 -5.019,-1.003c-0.943,-0.95 -1.416,-2.215 -1.407,-3.762l0.029,-0.416l0.529,-3.25c0.15,-0.901 -0.062,-1.578 -0.708,-2.263c-0.375,-0.398 -0.777,-0.789 -1.165,-1.165c-0.356,-0.346 -0.644,-0.627 -0.928,-0.914c-1.561,-1.581 -2.059,-3.308 -1.48,-5.134c0.407,-1.288 1.477,-2.914 4.264,-3.335l1.503,-0.216c0.49,-0.071 0.975,-0.142 1.46,-0.221c0.816,-0.133 1.346,-0.522 1.772,-1.3c0.27,-0.492 0.521,-1.015 0.763,-1.522c0.208,-0.432 0.363,-0.754 0.524,-1.075c1.01,-2.019 2.511,-3.051 4.461,-3.069c1.951,0 3.464,1.013 4.501,3.011c0.31,0.596 0.606,1.204 0.893,1.793l0.346,0.703c0.465,0.947 1.093,1.387 2.169,1.521c1.042,0.128 1.98,0.263 2.872,0.412c0.696,0.115 1.399,0.377 2.034,0.759c2.025,1.213 2.786,3.645 1.81,5.782c-0.311,0.681 -0.753,1.329 -1.279,1.874c-0.347,0.362 -0.712,0.72 -1.068,1.068l-0.068,0.067c-0.35,0.34 -0.68,0.662 -0.991,0.983c-0.627,0.647 -0.831,1.316 -0.682,2.236c0.073,0.454 0.15,0.908 0.228,1.363l0.273,1.604c0.064,0.398 0.069,0.728 0.067,1.026c-0.044,2.767 -1.979,4.774 -4.602,4.774zm-6.539,-3.363c0.239,0 0.475,0.034 0.702,0.101c0.477,0.142 1.029,0.415 1.613,0.705c0.305,0.154 0.608,0.305 0.919,0.45c0.152,0.068 0.305,0.147 0.502,0.249c0.421,0.215 0.914,0.468 1.489,0.664c0.438,0.145 0.882,0.221 1.315,0.221c2.068,0 3.594,-1.604 3.628,-3.813c0.003,-0.235 0.001,-0.516 -0.054,-0.855l-0.271,-1.6c-0.078,-0.457 -0.155,-0.914 -0.229,-1.372c-0.199,-1.223 0.101,-2.198 0.943,-3.068c0.318,-0.329 0.654,-0.656 1.009,-1.001l0.067,-0.067c0.35,-0.342 0.707,-0.692 1.048,-1.048c0.452,-0.468 0.83,-1.023 1.095,-1.605c0.767,-1.678 0.168,-3.588 -1.424,-4.543c-0.531,-0.318 -1.117,-0.537 -1.694,-0.633c-0.878,-0.146 -1.803,-0.279 -2.832,-0.406c-1.409,-0.175 -2.31,-0.81 -2.923,-2.057l-0.346,-0.705c-0.283,-0.583 -0.576,-1.183 -0.882,-1.772c-0.869,-1.673 -2.057,-2.487 -3.634,-2.487c-1.572,0.013 -2.75,0.841 -3.594,2.53c-0.159,0.317 -0.312,0.635 -0.485,0.994c-0.281,0.587 -0.541,1.127 -0.819,1.635c-0.57,1.042 -1.355,1.611 -2.47,1.793c-0.49,0.08 -0.981,0.151 -1.477,0.223l-1.499,0.216c-2.288,0.346 -3.155,1.641 -3.479,2.665c-0.468,1.475 -0.061,2.835 1.244,4.156c0.279,0.282 0.565,0.56 0.914,0.899c0.399,0.387 0.813,0.789 1.196,1.198c0.856,0.906 1.161,1.888 0.96,3.088l-0.546,3.546c-0.007,1.246 0.372,2.28 1.125,3.038c0.955,0.963 2.56,1.272 4.009,0.77c0.407,-0.142 0.751,-0.314 1.068,-0.477c0.564,-0.294 1.127,-0.591 1.689,-0.889l0.682,-0.36c0.482,-0.253 0.968,-0.383 1.441,-0.383zm6.539,-0.434c-0.128,0 -0.268,-0.025 -0.414,-0.074c-0.367,-0.125 -0.706,-0.298 -1.1,-0.498c-0.225,-0.116 -0.417,-0.215 -0.611,-0.304c-0.277,-0.127 -0.551,-0.265 -0.836,-0.407c-0.695,-0.346 -1.352,-0.674 -2.076,-0.89c-1.406,-0.411 -2.882,-0.235 -4.266,0.498l-0.818,0.433c-0.514,0.272 -1.024,0.542 -1.535,0.807c-0.221,0.114 -0.453,0.231 -0.695,0.316c-0.452,0.159 -0.866,0.125 -1.081,-0.097c-0.183,-0.183 -0.293,-0.512 -0.302,-0.921l0.508,-3.2c0.35,-2.087 -0.218,-3.934 -1.686,-5.493c-0.406,-0.434 -0.846,-0.861 -1.287,-1.289c-0.294,-0.285 -0.587,-0.57 -0.873,-0.859c-0.553,-0.56 -0.695,-0.892 -0.561,-1.316c0.134,-0.419 0.46,-0.616 1.204,-0.728l1.206,-0.174c0.607,-0.087 1.207,-0.174 1.809,-0.271c1.986,-0.325 3.498,-1.409 4.492,-3.223c0.302,-0.552 0.585,-1.138 0.881,-1.755c0.153,-0.323 0.31,-0.646 0.471,-0.969c0.361,-0.721 0.635,-0.966 1.083,-0.969c0.46,0 0.741,0.244 1.116,0.967c0.294,0.565 0.575,1.143 0.85,1.707l0.35,0.711c1.035,2.107 2.754,3.321 5.109,3.613c0.985,0.123 1.873,0.25 2.719,0.391c0.226,0.038 0.475,0.134 0.703,0.27c0.365,0.22 0.48,0.573 0.307,0.948c-0.137,0.298 -0.33,0.581 -0.559,0.819c-0.342,0.355 -0.697,0.702 -1.082,1.078c-0.345,0.336 -0.702,0.683 -1.038,1.031c-1.472,1.521 -2.045,3.366 -1.703,5.484l0.503,2.979c0.017,0.115 0.018,0.217 0.015,0.338c-0.013,0.998 -0.671,1.047 -0.803,1.047zm-16.66,-12.978c0.047,0.063 0.13,0.164 0.28,0.316c0.28,0.283 0.569,0.565 0.858,0.845c0.452,0.439 0.904,0.877 1.319,1.321c1.687,1.791 2.339,3.916 1.936,6.317l-0.501,3.107c0.003,0.02 0.007,0.04 0.01,0.06c0.025,-0.007 0.052,-0.014 0.084,-0.026c0.201,-0.069 0.39,-0.169 0.57,-0.261c0.507,-0.264 1.014,-0.532 1.522,-0.801l0.822,-0.434c1.608,-0.852 3.344,-1.057 4.997,-0.571c0.807,0.241 1.501,0.587 2.236,0.952c0.275,0.138 0.54,0.27 0.808,0.394c0.206,0.095 0.412,0.2 0.648,0.322c0.344,0.176 0.624,0.318 0.9,0.419c0,-0.007 0,-0.013 0,-0.021c0.002,-0.086 0.005,-0.136 -0.003,-0.19l-0.502,-2.974c-0.395,-2.441 0.265,-4.566 1.963,-6.32c0.344,-0.356 0.706,-0.709 1.058,-1.051c0.376,-0.368 0.725,-0.709 1.061,-1.056c0.1,-0.106 0.191,-0.223 0.267,-0.349c-0.065,-0.026 -0.125,-0.045 -0.179,-0.053c-0.834,-0.139 -1.708,-0.264 -2.678,-0.385c-2.702,-0.334 -4.674,-1.73 -5.863,-4.149l-0.351,-0.713c-0.271,-0.559 -0.548,-1.129 -0.838,-1.686c-0.113,-0.218 -0.192,-0.337 -0.24,-0.4c-0.047,0.065 -0.121,0.182 -0.224,0.39c-0.159,0.316 -0.312,0.633 -0.464,0.952c-0.305,0.634 -0.595,1.235 -0.905,1.802c-1.146,2.09 -2.893,3.341 -5.189,3.716c-0.608,0.099 -1.214,0.186 -1.827,0.275l-1.202,0.173c-0.186,0.025 -0.302,0.056 -0.373,0.079z" fill="#ffffff"/>
  </g>
  <text id="svg_12" font-family="'Helvetica Neue', Helvetica, Arial-Unicode, Arial, Sans-serif" font-weight="bold" font-size="5px" fill="#000000" y="84" x="0">from the Noun Project</text>
 </g>
</svg>